<?xml version="1.0" encoding="utf-8"?>
<!-- Generator: Adobe Illustrator 18.1.1, SVG Export Plug-In . SVG Version: 6.00 Build 0)  -->
<svg version="1.1" id="Layer_1" xmlns="http://www.w3.org/2000/svg" xmlns:xlink="http://www.w3.org/1999/xlink" x="0px" y="0px" preserveAspectRatio="xMinYMid"
	 viewBox="0 0 445.1 201.3">
<g>
	<path fill="#1A1A1A" d="M113.8,89c-1.6,0.2-2.7,1.6-2.5,3.2l0.5,4.1c0.2,1.6,1.6,2.7,3.2,2.5c1.6-0.2,2.7-1.6,2.5-3.2l-0.5-4.1
		C116.8,89.9,115.4,88.8,113.8,89z"/>
	<path fill="#1A1A1A" d="M125.8,87.4c-1.6,0.2-2.7,1.6-2.5,3.2l0.5,4.1c0.2,1.6,1.6,2.7,3.2,2.5c1.6-0.2,2.7-1.6,2.5-3.2l-0.5-4.1
		C128.8,88.3,127.4,87.2,125.8,87.4z"/>
	<path fill="#1A1A1A" d="M137.8,85.7c-1.6,0.2-2.7,1.6-2.5,3.2l0.5,4.1c0.2,1.6,1.6,2.7,3.2,2.5c1.6-0.2,2.7-1.6,2.5-3.2l-0.5-4.1
		C140.8,86.6,139.4,85.5,137.8,85.7z"/>
	<path fill="#1A1A1A" d="M153,86.5c-0.2-1.6-1.6-2.7-3.2-2.5c-1.6,0.2-2.7,1.6-2.5,3.2l0.5,4.1c0.2,1.6,1.6,2.7,3.2,2.5
		c1.6-0.2,2.7-1.6,2.5-3.2L153,86.5z"/>
	<path fill="#1A1A1A" d="M165.1,84.9c-0.2-1.6-1.6-2.7-3.2-2.5c-1.6,0.2-2.7,1.6-2.5,3.2l0.5,4.1c0.2,1.6,1.6,2.7,3.2,2.5
		c1.6-0.2,2.7-1.6,2.5-3.2L165.1,84.9z"/>
	<path fill="#1A1A1A" d="M189.1,81.4c-0.2-1.6-1.6-2.7-3.2-2.5v0c-1.6,0.2-2.7,1.6-2.5,3.2l0.5,4c0.2,1.6,1.6,2.7,3.2,2.5
		c1.6-0.2,2.7-1.6,2.5-3.2L189.1,81.4z"/>
	<path fill="#1A1A1A" d="M201.1,79.8c-0.2-1.6-1.6-2.7-3.2-2.5c-1.6,0.2-2.7,1.6-2.5,3.2l0.5,4c0.2,1.6,1.6,2.7,3.2,2.5
		c1.6-0.2,2.7-1.6,2.5-3.2L201.1,79.8z"/>
	<path fill="#1A1A1A" d="M213.1,78.1c-0.2-1.6-1.6-2.7-3.2-2.5c-1.6,0.2-2.7,1.6-2.5,3.2l0.5,4c0.2,1.6,1.6,2.7,3.2,2.5
		c1.6-0.2,2.7-1.6,2.5-3.2L213.1,78.1z"/>
	<path fill="#1A1A1A" d="M225.1,76.5c-0.2-1.6-1.6-2.7-3.2-2.5c-1.6,0.2-2.7,1.6-2.5,3.2l0.5,4c0.2,1.6,1.6,2.7,3.2,2.5h0
		c1.6-0.2,2.7-1.6,2.5-3.2L225.1,76.5z"/>
	<path fill="#1A1A1A" d="M237.1,74.8c-0.2-1.6-1.6-2.7-3.2-2.5c-1.6,0.2-2.7,1.6-2.5,3.2l0.5,4c0.2,1.6,1.6,2.7,3.2,2.5
		c1.6-0.2,2.7-1.6,2.5-3.2L237.1,74.8z"/>
	<path fill="#1A1A1A" d="M249.1,73.2c-0.2-1.6-1.7-2.7-3.2-2.5c-1.6,0.2-2.7,1.7-2.5,3.2l0.5,4c0.2,1.6,1.7,2.7,3.2,2.5
		c1.6-0.2,2.7-1.7,2.5-3.2L249.1,73.2z"/>
	<path fill="#1A1A1A" d="M261.2,71.5c-0.2-1.6-1.7-2.7-3.2-2.5c-1.6,0.2-2.7,1.7-2.5,3.2l0.5,4c0.2,1.6,1.7,2.7,3.2,2.5
		c1.6-0.2,2.7-1.7,2.5-3.2L261.2,71.5z"/>
	<path fill="#1A1A1A" d="M273.2,69.9c-0.2-1.6-1.7-2.7-3.2-2.5c-1.6,0.2-2.7,1.7-2.5,3.2l0.5,4c0.2,1.6,1.7,2.7,3.2,2.5
		c1.6-0.2,2.7-1.7,2.5-3.2L273.2,69.9z"/>
	<path fill="#1A1A1A" d="M285.2,68.2c-0.2-1.6-1.7-2.7-3.2-2.5l0,0c-1.6,0.2-2.7,1.7-2.5,3.2l0.5,4c0.2,1.6,1.7,2.7,3.2,2.5
		c1.6-0.2,2.7-1.7,2.5-3.2L285.2,68.2z"/>
	<path fill="#1A1A1A" d="M297.2,66.6c-0.2-1.6-1.7-2.7-3.2-2.4c-1.6,0.2-2.7,1.7-2.4,3.2l0.5,4c0.2,1.6,1.7,2.7,3.2,2.4
		c1.6-0.2,2.7-1.7,2.4-3.2L297.2,66.6z"/>
	<path fill="#1A1A1A" d="M321.2,63.1c-0.2-1.6-1.7-2.7-3.2-2.4h0c-1.6,0.2-2.7,1.7-2.4,3.2l0.6,4c0.2,1.6,1.7,2.7,3.2,2.4
		c1.6-0.2,2.7-1.7,2.4-3.2L321.2,63.1z"/>
	<path fill="#1A1A1A" d="M333.2,61.4c-0.2-1.6-1.7-2.7-3.2-2.4c-1.6,0.2-2.7,1.7-2.4,3.2l0.6,4c0.2,1.6,1.7,2.7,3.2,2.4l0,0
		c1.6-0.2,2.7-1.7,2.4-3.2L333.2,61.4z"/>
	<path fill="#1A1A1A" d="M345.3,59.8c-0.2-1.6-1.7-2.7-3.2-2.4c-1.6,0.2-2.7,1.7-2.4,3.2l0.6,4c0.2,1.6,1.7,2.7,3.2,2.4
		c1.6-0.2,2.7-1.7,2.4-3.2L345.3,59.8z"/>
	<path fill="#1A1A1A" d="M357.3,58.1c-0.2-1.6-1.7-2.7-3.2-2.4c-1.6,0.2-2.7,1.7-2.4,3.2l0.6,4c0.2,1.6,1.7,2.7,3.2,2.4
		c1.6-0.2,2.7-1.7,2.4-3.2L357.3,58.1z"/>
	<path fill="#1A1A1A" d="M369.3,56.5c-0.2-1.6-1.7-2.7-3.2-2.4s-2.7,1.7-2.4,3.2l0.6,4c0.2,1.6,1.7,2.7,3.2,2.4
		c1.6-0.2,2.7-1.7,2.4-3.2L369.3,56.5z"/>
	<path fill="#1A1A1A" d="M381.3,54.5c-0.2-1.4-1.5-2.4-2.9-2.2l-0.6,0.1c-1.4,0.2-2.4,1.5-2.2,2.9l0.7,4.7c0.2,1.4,1.5,2.4,2.9,2.2
		l0.6-0.1c1.4-0.2,2.4-1.5,2.2-2.9L381.3,54.5z"/>
	<path fill="#1A1A1A" d="M432.3,39.9c-1.6-0.6-3-1.2-4.3-1.7c-1-0.5-2.2-1.1-3.6-1.7c-6.1-3.1-15.4-7.7-25.7-7.4
		c-11.3,0.3-21.3,0.6-29.8,2c-3.3,0.5-50.8,8.4-106.1,17.5L238.5,2c-0.2-0.5-0.7-0.8-1.2-0.8L222.1,0c-0.4,0-0.8,0.1-1.1,0.4
		c-0.3,0.3-0.5,0.6-0.5,1.1L217.7,56C153.4,66.6,91.6,76.8,84.9,77.9L19.6,35.8c-0.3-0.2-0.7-0.3-1.1-0.2L1.2,39.1
		c-0.5,0.1-0.9,0.5-1.1,0.9c-0.2,0.5-0.1,1,0.2,1.4l35.5,46c-4,0.8-9,2-10.2,3.9c-1.6,2.6-1.3,5.7,0.9,8.7c1.1,1.4,3,2.7,5.9,3.9
		L7.5,125c-0.5,0.4-0.7,1.2-0.4,1.8c0.3,0.5,0.8,0.8,1.4,0.8c0.1,0,0.2,0,0.3,0l17.5-4c0.1,0,0.3-0.1,0.4-0.2
		c0.2-0.1,14.3-8.3,26-14.9c7,0.9,39.1,4.9,48.6,5c0.2,0,0.6,0,1,0c9.2-0.2,57.7-3,97-5.8c-3.1,5.3-7.6,13-10.5,17.4
		c-3.7,5.7-50.4,48.8-74.6,70.9c-0.4,0.3-0.5,0.8-0.5,1.3c0,0.5,0.3,0.9,0.7,1.1c0.2,0.1,5.1,3,9.4,2.9c0.3,0,0.6,0,0.9-0.1
		c0.8-0.1,3.1-0.4,71.3-53.6c17.9-14,42.4-33.2,56.8-44.6c8.6-1.3,142.2-22.4,150.2-24.3c6.4-1.6,41.4-13.7,42-28.9
		C445.2,44.9,438.4,42.2,432.3,39.9z M223.4,3.1l12.8,1l23.6,45c-12.8,2.1-26,4.3-39.1,6.4L223.4,3.1z M25.4,120.7l-11.2,2.5
		l22.1-18.6l0,0l3.3-2.7c0.7-0.2,2.6-0.9,5.1-1.7c0.5-0.2,1-0.3,1.6-0.5c0.3-0.1,0.6-0.2,0.8-0.3c5.4-1.7,12.2-3.6,15.8-3.7
		c0.2,0,0.5,0,0.7,0c0.8,0.1,2.6,0.2,3.8,0.4c0.2,0,0.3,0.1,0.5,0.1c-0.6,0.6-2.1,1.7-5.6,3.5c-0.4,0.2-0.8,0.4-1.3,0.7
		c-0.3,0.1-0.5,0.3-0.8,0.4c-0.2,0.1-0.4,0.2-0.6,0.4c-0.2,0.1-0.3,0.2-0.5,0.3c-0.2,0.1-0.5,0.3-0.7,0.4c-0.2,0.1-0.4,0.2-0.6,0.3
		c-0.2,0.1-0.5,0.3-0.8,0.4c-0.2,0.1-0.4,0.2-0.5,0.3c-0.3,0.2-0.7,0.4-1,0.5c-0.1,0.1-0.2,0.1-0.3,0.2c-0.4,0.2-0.8,0.4-1.1,0.6
		c-0.1,0-0.1,0.1-0.2,0.1c-0.4,0.2-0.8,0.5-1.3,0.7c0,0-0.1,0-0.1,0c-0.3,0.2-0.5,0.3-0.8,0.5c0,0,0,0,0,0
		C40.6,112,27.2,119.7,25.4,120.7z M194.5,145c-41.2,32.1-67.4,51.9-70.3,53.2c-2.2,0.2-4.7-0.7-6.4-1.5c10.8-9.8,69-63.1,73.5-70
		c3.4-5.3,9.1-15,12-20c0,0,0,0,0,0c0.2-0.4,0.5-0.8,0.7-1.2c0.1-0.2,0.2-0.4,0.3-0.5c0,0,0,0,0,0c0.3-0.5,0.5-0.8,0.6-1.1
		c1.7-0.9,9.3-4.6,22.2-8.3c12.4-3.5,20.3-5.4,26.4-5.6c0.8,0,1.6,0,2.4,0c3.5,0.2,5.2,0.7,5.9,1.1c0,0,0.1,0,0.1,0.1c0,0,0,0,0,0
		c0.1,0.1,0.2,0.1,0.2,0.1c-0.6,0.6-2.9,2.5-11.1,8.9l0,0C238.9,110.2,217.7,126.9,194.5,145z M402.3,75.7
		c-5.9,1.5-117.9,19.4-144.9,23.5c7-5.6,7.2-5.9,7.4-6.1c0.7-0.9,0.8-1.9,0.4-2.8c-0.8-1.9-3.8-2.9-9.1-3.2c-0.9,0-1.7-0.1-2.6,0
		c-6.4,0.2-14.5,2.1-27.2,5.7c-15.1,4.3-22.9,8.5-23.2,8.7c-0.1,0.1-0.3,0.2-0.4,0.3c-0.1,0.1-0.2,0.2-0.2,0.3c0,0-0.6,1-1.4,2.5
		c-42.2,3.1-90.6,5.8-98.9,6c-0.4,0-0.7,0-0.9,0c-7.7,0-32.4-2.9-44.2-4.4c0.1-0.1,0.3-0.1,0.4-0.2c0.4-0.2,0.8-0.4,1.1-0.6
		c0.2-0.1,0.4-0.2,0.6-0.3c0.5-0.3,0.9-0.5,1.4-0.7c0.2-0.1,0.3-0.2,0.5-0.3c0.3-0.2,0.7-0.4,1-0.5c0.2-0.1,0.3-0.2,0.5-0.3
		c0.4-0.2,0.8-0.5,1.2-0.7c6-3.2,7.9-5,7.5-7c-0.5-2.1-3.2-2.4-7.4-2.7c-0.3,0-0.6,0-1,0l0,0l0,0c-4.3,0.1-12.6,2.5-18.3,4.3
		c-0.6,0.2-1.1,0.4-1.6,0.5c-0.5,0.2-1,0.3-1.4,0.5c-1.8,0.6-3,1-3.2,1.1c-0.2,0.1-0.3,0.1-0.5,0.3l-2.8,2.4
		c-3.9-1.3-5.5-2.6-6.1-3.4c-1.5-2-1.7-3.8-0.8-5.4c0.7-0.8,5.6-2.2,10.6-3c0.5-0.1,1-0.4,1.2-0.9c0.2-0.5,0.1-1.1-0.2-1.5L4.2,41.6
		l14.3-3l65.3,42.1c0.3,0.2,0.7,0.7,1.1,0.7c1.3-0.2,66.8-10.7,134.6-21.7c0,0,0,0,0,0l15.5-3c0.1,0,0.2-0.2,0.3-0.3l6.7-1.2
		c64-10.5,124-20.5,127.7-21.1c8.3-1.4,18.2-1.7,29.4-2c6.7-0.2,13,1.9,18.3,4.3c-3.9,2.2-14.7,8.4-16.2,9.8
		c-1.8,1.6-0.2,9.7,2.3,10.2c2.4,0.5,7.2-1.9,15.9-7.4c4.9-3.1,7.5-5.9,8.8-7.4c1,0.4,2.1,0.8,3.2,1.3c4.6,1.8,10.9,4.2,10.8,6.9
		C441.6,61.7,410.3,73.7,402.3,75.7z"/>
</g>
</svg>
