<?xml version="1.0" encoding="utf-8"?>
<!-- Generator: Adobe Illustrator 18.1.1, SVG Export Plug-In . SVG Version: 6.00 Build 0)  -->
<svg version="1.1" id="Layer_1" xmlns="http://www.w3.org/2000/svg" xmlns:xlink="http://www.w3.org/1999/xlink" x="0px" y="0px"
	 viewBox="0 0 1284 239.2" enable-background="new 0 0 1284 239.2" xml:space="preserve">
<path fill="#F2F2F2" d="M1237.1,42.7c-17.7,0-33.2,6.8-41.2,16.8C1191.9,26.2,1147.2,0,1092.6,0c-49.7,0-91.2,21.7-101.3,50.7
	c-5.7-5.3-15.8-8.8-27.4-8.8c-16.1,0-29.5,6.8-31.9,15.8c-4.4-0.6-8.9-0.9-13.6-0.9c-33.6,0-61.8,15.4-69.1,36
	c-6.9-3.4-16-5.5-25.8-5.5c-6.6,0-12.8,0.9-18.3,2.6c-10.2-15.2-32.5-26.2-58.8-27.7c3.9-4.6,6.2-9.9,6.2-15.5
	c0-18-23-32.7-51.3-32.7c-26.5,0-48.3,12.8-51,29.2c-2.7-0.3-5.5-0.5-8.3-0.5c-21,0-38.8,9.5-44.6,22.7c-6.3-1.7-13.1-2.7-20.2-3.1
	c3.9-4.6,6.2-9.9,6.2-15.5c0-18-23-32.7-51.3-32.7c-26.5,0-48.3,12.8-51,29.2c-2.7-0.3-5.5-0.5-8.3-0.5c-12.4,0-23.7,3.3-32,8.7
	c-4.7-1.1-9.6-1.7-14.6-1.7c-9.4,0-18.2,2-26,5.5c-4-7.7-16.3-13.3-31-13.3c-16.1,0-29.5,6.8-31.9,15.8c-4.4-0.6-8.9-0.9-13.6-0.9
	c-33.6,0-61.8,15.4-69.1,36c-6.9-3.4-16-5.5-25.8-5.5c-6.6,0-12.8,0.9-18.3,2.6c-10.2-15.2-32.5-26.2-58.8-27.7
	c3.9-4.6,6.2-9.9,6.2-15.5c0-18-23-32.7-51.3-32.7c-26.5,0-48.3,12.8-51,29.2c-2.7-0.3-5.5-0.5-8.4-0.5C21,42.7,0,57,0,74.7v164.5
	h1284V74.7C1284,57,1262.9,42.7,1237.1,42.7z"/>
</svg>
