<?xml version="1.0" encoding="utf-8"?>
<!-- Generator: Adobe Illustrator 18.1.1, SVG Export Plug-In . SVG Version: 6.00 Build 0)  -->
<svg version="1.1" id="Layer_1" xmlns="http://www.w3.org/2000/svg" xmlns:xlink="http://www.w3.org/1999/xlink" x="0px" y="0px"
	 viewBox="0 0 636 242" enable-background="new 0 0 636 242" xml:space="preserve">
<path fill="#F2F2F2" d="M588.6,45.7c-17.7,0-33,6.8-40.9,16.8C543.7,29.2,499.1,3,444.5,3c-48.3,0-88.8,20.5-100.3,48.3
	c-6.7-7-16.1-11.3-26.6-11.3c-15.5,0-28.7,9.5-34.3,23.1c-8.5-4.7-18.3-7.4-28.7-7.4c-25.7,0-47.5,16.2-56,38.9
	c-6.5-2.7-14.5-4.3-23.2-4.3c-6.6,0-12.8,0.9-18.3,2.6c-8.4-15.5-31.3-31.8-58.8-27.7c-3.5-9.9-13.9-33.3-48.9-32.3
	C23,33.5-1,55.2-1,77.7V243h636V77.7C635,60,614.4,45.7,588.6,45.7z"/>
</svg>
